<svg xmlns="http://www.w3.org/2000/svg" viewBox="0 0 32 32">
  <defs>
    <linearGradient id="g" x1="0" y1="0" x2="1" y2="1">
      <stop offset="0" stop-color="#7c5cff" />
      <stop offset="1" stop-color="#22d3ee" />
    </linearGradient>
  </defs>
  <circle cx="16" cy="16" r="15" fill="url(#g)" />
  <path d="M13 9h4.2c2 0 3.3 1 3.3 2.7 0 1.2-.7 2-1.7 2.4 1.3.3 2.1 1.2 2.1 2.6 0 1.9-1.5 3-3.7 3H13V9zm2.1 1.8v2.5h1.7c1 0 1.6-.5 1.6-1.3 0-.8-.6-1.2-1.6-1.2h-1.7zm0 4.2V18h2c1 0 1.7-.5 1.7-1.5 0-.9-.6-1.4-1.8-1.4h-1.9z" fill="#0b0e1a" />
  <rect x="14.4" y="7" width="1.3" height="3" fill="#0b0e1a" />
  <rect x="16.6" y="7" width="1.3" height="3" fill="#0b0e1a" />
  <rect x="14.4" y="22" width="1.3" height="3" fill="#0b0e1a" />
  <rect x="16.6" y="22" width="1.3" height="3" fill="#0b0e1a" />
</svg>
